<mxfile host="Electron" agent="Mozilla/5.0 (Windows NT 10.0; Win64; x64) AppleWebKit/537.36 (KHTML, like Gecko) draw.io/24.1.0 Chrome/120.0.6099.109 Electron/28.1.0 Safari/537.36" modified="2024-10-21T11:11:18.011Z" version="24.1.0" etag="30eOTZ9NPseP5YEB7bof" type="device">
  <diagram name="PÃ¡gina-1" id="4AsMBui_O2mrqk55qG8a">
    <mxGraphModel dx="2440" dy="786" grid="1" gridSize="10" guides="1" tooltips="1" connect="1" arrows="1" fold="1" page="1" pageScale="1" pageWidth="827" pageHeight="1169" math="0" shadow="0">
      <root>
        <mxCell id="0" />
        <mxCell id="1" parent="0" />
        <mxCell id="wt-aQSrJydBZdkq5_UEP-1" value="&amp;lt;&amp;lt;root&amp;gt;&amp;gt;&lt;br&gt;&amp;lt;&amp;lt;entity&amp;gt;&amp;gt;&lt;div&gt;OperationRequest&lt;/div&gt;" style="whiteSpace=wrap;html=1;" parent="1" vertex="1">
          <mxGeometry x="220" y="190" width="120" height="60" as="geometry" />
        </mxCell>
        <mxCell id="00JM_ZhNrvVwOaPGAAfQ-4" style="edgeStyle=orthogonalEdgeStyle;rounded=0;orthogonalLoop=1;jettySize=auto;html=1;exitX=0.75;exitY=1;exitDx=0;exitDy=0;entryX=0.5;entryY=0;entryDx=0;entryDy=0;" parent="1" source="wt-aQSrJydBZdkq5_UEP-2" target="00JM_ZhNrvVwOaPGAAfQ-2" edge="1">
          <mxGeometry relative="1" as="geometry" />
        </mxCell>
        <mxCell id="00JM_ZhNrvVwOaPGAAfQ-6" value="1" style="edgeLabel;html=1;align=center;verticalAlign=middle;resizable=0;points=[];" parent="00JM_ZhNrvVwOaPGAAfQ-4" vertex="1" connectable="0">
          <mxGeometry x="0.36" y="-1" relative="1" as="geometry">
            <mxPoint x="11" as="offset" />
          </mxGeometry>
        </mxCell>
        <mxCell id="wt-aQSrJydBZdkq5_UEP-2" value="&amp;lt;&amp;lt;root&amp;gt;&amp;gt;&lt;div&gt;&amp;lt;&amp;lt;entity&amp;gt;&amp;gt;&lt;br&gt;&lt;div&gt;OperationType&lt;/div&gt;&lt;/div&gt;" style="whiteSpace=wrap;html=1;" parent="1" vertex="1">
          <mxGeometry x="-50" y="190" width="120" height="60" as="geometry" />
        </mxCell>
        <mxCell id="wt-aQSrJydBZdkq5_UEP-3" value="" style="endArrow=classic;html=1;rounded=0;exitX=0;exitY=0.5;exitDx=0;exitDy=0;entryX=1;entryY=0.5;entryDx=0;entryDy=0;" parent="1" source="wt-aQSrJydBZdkq5_UEP-1" target="wt-aQSrJydBZdkq5_UEP-2" edge="1">
          <mxGeometry width="50" height="50" relative="1" as="geometry">
            <mxPoint x="350" y="350" as="sourcePoint" />
            <mxPoint x="400" y="300" as="targetPoint" />
          </mxGeometry>
        </mxCell>
        <mxCell id="wt-aQSrJydBZdkq5_UEP-4" value="1" style="edgeLabel;html=1;align=center;verticalAlign=middle;resizable=0;points=[];" parent="wt-aQSrJydBZdkq5_UEP-3" vertex="1" connectable="0">
          <mxGeometry x="0.5521" y="2" relative="1" as="geometry">
            <mxPoint x="-5" y="-10" as="offset" />
          </mxGeometry>
        </mxCell>
        <mxCell id="wt-aQSrJydBZdkq5_UEP-6" value="&amp;lt;&amp;lt;root&amp;gt;&amp;gt;&lt;div&gt;&amp;lt;&amp;lt;entity&amp;gt;&amp;gt;&lt;/div&gt;&lt;div&gt;Patient&lt;/div&gt;" style="whiteSpace=wrap;html=1;" parent="1" vertex="1">
          <mxGeometry x="270" y="490" width="120" height="60" as="geometry" />
        </mxCell>
        <mxCell id="wt-aQSrJydBZdkq5_UEP-9" value="" style="endArrow=classic;html=1;rounded=0;exitX=0.5;exitY=1;exitDx=0;exitDy=0;entryX=0.5;entryY=0;entryDx=0;entryDy=0;" parent="1" source="wt-aQSrJydBZdkq5_UEP-1" target="wt-aQSrJydBZdkq5_UEP-6" edge="1">
          <mxGeometry width="50" height="50" relative="1" as="geometry">
            <mxPoint x="330" y="450" as="sourcePoint" />
            <mxPoint x="315" y="470" as="targetPoint" />
          </mxGeometry>
        </mxCell>
        <mxCell id="wt-aQSrJydBZdkq5_UEP-10" value="1" style="edgeLabel;html=1;align=center;verticalAlign=middle;resizable=0;points=[];" parent="wt-aQSrJydBZdkq5_UEP-9" vertex="1" connectable="0">
          <mxGeometry x="0.8897" y="-2" relative="1" as="geometry">
            <mxPoint x="12" as="offset" />
          </mxGeometry>
        </mxCell>
        <mxCell id="wt-aQSrJydBZdkq5_UEP-11" value="OperationRequest" style="shape=umlFrame;whiteSpace=wrap;html=1;pointerEvents=0;width=120;height=20;" parent="1" vertex="1">
          <mxGeometry x="130" y="160" width="470" height="260" as="geometry" />
        </mxCell>
        <mxCell id="wt-aQSrJydBZdkq5_UEP-12" value="&amp;lt;&amp;lt;value&amp;gt;&amp;gt;&lt;br&gt;Priority" style="whiteSpace=wrap;html=1;" parent="1" vertex="1">
          <mxGeometry x="450" y="210" width="120" height="60" as="geometry" />
        </mxCell>
        <mxCell id="wt-aQSrJydBZdkq5_UEP-13" value="&amp;lt;&amp;lt;value&amp;gt;&amp;gt;&lt;br&gt;DeadlineDate" style="whiteSpace=wrap;html=1;" parent="1" vertex="1">
          <mxGeometry x="450" y="280" width="120" height="60" as="geometry" />
        </mxCell>
        <mxCell id="wt-aQSrJydBZdkq5_UEP-14" value="" style="endArrow=classic;html=1;rounded=0;exitX=1;exitY=0.5;exitDx=0;exitDy=0;entryX=0;entryY=0.5;entryDx=0;entryDy=0;" parent="1" source="wt-aQSrJydBZdkq5_UEP-1" target="wt-aQSrJydBZdkq5_UEP-12" edge="1">
          <mxGeometry width="50" height="50" relative="1" as="geometry">
            <mxPoint x="440" y="490" as="sourcePoint" />
            <mxPoint x="490" y="440" as="targetPoint" />
          </mxGeometry>
        </mxCell>
        <mxCell id="wt-aQSrJydBZdkq5_UEP-15" value="1" style="edgeLabel;html=1;align=center;verticalAlign=middle;resizable=0;points=[];" parent="wt-aQSrJydBZdkq5_UEP-14" vertex="1" connectable="0">
          <mxGeometry x="0.6468" y="2" relative="1" as="geometry">
            <mxPoint x="-4" y="-10" as="offset" />
          </mxGeometry>
        </mxCell>
        <mxCell id="wt-aQSrJydBZdkq5_UEP-16" value="" style="endArrow=classic;html=1;rounded=0;exitX=1;exitY=0.75;exitDx=0;exitDy=0;entryX=0;entryY=0.5;entryDx=0;entryDy=0;" parent="1" source="wt-aQSrJydBZdkq5_UEP-1" target="wt-aQSrJydBZdkq5_UEP-13" edge="1">
          <mxGeometry width="50" height="50" relative="1" as="geometry">
            <mxPoint x="410" y="380" as="sourcePoint" />
            <mxPoint x="460" y="330" as="targetPoint" />
          </mxGeometry>
        </mxCell>
        <mxCell id="wt-aQSrJydBZdkq5_UEP-17" value="1" style="edgeLabel;html=1;align=center;verticalAlign=middle;resizable=0;points=[];" parent="wt-aQSrJydBZdkq5_UEP-16" vertex="1" connectable="0">
          <mxGeometry x="0.7346" y="1" relative="1" as="geometry">
            <mxPoint x="1" y="-17" as="offset" />
          </mxGeometry>
        </mxCell>
        <mxCell id="wt-aQSrJydBZdkq5_UEP-18" value="Patient" style="shape=umlFrame;whiteSpace=wrap;html=1;pointerEvents=0;" parent="1" vertex="1">
          <mxGeometry x="210" y="460" width="490" height="400" as="geometry" />
        </mxCell>
        <mxCell id="00JM_ZhNrvVwOaPGAAfQ-1" value="Operation Type" style="shape=umlFrame;whiteSpace=wrap;html=1;pointerEvents=0;width=70;height=30;" parent="1" vertex="1">
          <mxGeometry x="-380" y="160" width="490" height="260" as="geometry" />
        </mxCell>
        <mxCell id="00JM_ZhNrvVwOaPGAAfQ-2" value="&amp;lt;&amp;lt;value&amp;gt;&amp;gt;&lt;div&gt;OperationName&lt;/div&gt;" style="whiteSpace=wrap;html=1;" parent="1" vertex="1">
          <mxGeometry x="-20" y="330" width="120" height="60" as="geometry" />
        </mxCell>
        <mxCell id="00JM_ZhNrvVwOaPGAAfQ-3" value="&amp;lt;&amp;lt;derived&amp;gt;&amp;gt;&lt;div&gt;EstimatedDuration&lt;/div&gt;" style="whiteSpace=wrap;html=1;" parent="1" vertex="1">
          <mxGeometry x="-170" y="330" width="120" height="60" as="geometry" />
        </mxCell>
        <mxCell id="00JM_ZhNrvVwOaPGAAfQ-13" value="&amp;lt;&amp;lt;value&amp;gt;&amp;gt;&lt;div&gt;DateOfBirth&lt;/div&gt;" style="whiteSpace=wrap;html=1;" parent="1" vertex="1">
          <mxGeometry x="365" y="670" width="90" height="60" as="geometry" />
        </mxCell>
        <mxCell id="00JM_ZhNrvVwOaPGAAfQ-14" value="" style="endArrow=classic;html=1;rounded=0;exitX=0.5;exitY=1;exitDx=0;exitDy=0;entryX=0;entryY=0.5;entryDx=0;entryDy=0;" parent="1" source="wt-aQSrJydBZdkq5_UEP-6" target="00JM_ZhNrvVwOaPGAAfQ-13" edge="1">
          <mxGeometry width="50" height="50" relative="1" as="geometry">
            <mxPoint x="260" y="580" as="sourcePoint" />
            <mxPoint x="310" y="530" as="targetPoint" />
            <Array as="points">
              <mxPoint x="330" y="700" />
            </Array>
          </mxGeometry>
        </mxCell>
        <mxCell id="00JM_ZhNrvVwOaPGAAfQ-15" value="1" style="edgeLabel;html=1;align=center;verticalAlign=middle;resizable=0;points=[];" parent="00JM_ZhNrvVwOaPGAAfQ-14" vertex="1" connectable="0">
          <mxGeometry x="0.5703" y="-2" relative="1" as="geometry">
            <mxPoint x="22" y="-12" as="offset" />
          </mxGeometry>
        </mxCell>
        <mxCell id="00JM_ZhNrvVwOaPGAAfQ-16" value="&amp;lt;&amp;lt;id&amp;gt;&amp;gt;&lt;div&gt;MedicalRecordNumber&lt;/div&gt;" style="whiteSpace=wrap;html=1;" parent="1" vertex="1">
          <mxGeometry x="365" y="585" width="130" height="60" as="geometry" />
        </mxCell>
        <mxCell id="00JM_ZhNrvVwOaPGAAfQ-17" value="" style="endArrow=classic;html=1;rounded=0;exitX=0.5;exitY=1;exitDx=0;exitDy=0;entryX=0;entryY=0.5;entryDx=0;entryDy=0;" parent="1" source="wt-aQSrJydBZdkq5_UEP-6" target="00JM_ZhNrvVwOaPGAAfQ-16" edge="1">
          <mxGeometry width="50" height="50" relative="1" as="geometry">
            <mxPoint x="370" y="540" as="sourcePoint" />
            <mxPoint x="420" y="490" as="targetPoint" />
            <Array as="points">
              <mxPoint x="330" y="615" />
            </Array>
          </mxGeometry>
        </mxCell>
        <mxCell id="00JM_ZhNrvVwOaPGAAfQ-18" value="1" style="edgeLabel;html=1;align=center;verticalAlign=middle;resizable=0;points=[];" parent="00JM_ZhNrvVwOaPGAAfQ-17" vertex="1" connectable="0">
          <mxGeometry x="0.4473" y="-2" relative="1" as="geometry">
            <mxPoint x="13" y="-17" as="offset" />
          </mxGeometry>
        </mxCell>
        <mxCell id="00JM_ZhNrvVwOaPGAAfQ-19" value="&amp;lt;&amp;lt;value&amp;gt;&amp;gt;&lt;div&gt;&amp;lt;&amp;lt;unique&amp;gt;&amp;gt;&lt;br&gt;&lt;div&gt;Email&lt;/div&gt;&lt;/div&gt;" style="whiteSpace=wrap;html=1;" parent="1" vertex="1">
          <mxGeometry x="565" y="490" width="120" height="60" as="geometry" />
        </mxCell>
        <mxCell id="00JM_ZhNrvVwOaPGAAfQ-20" value="" style="endArrow=classic;html=1;rounded=0;exitX=1;exitY=0.5;exitDx=0;exitDy=0;entryX=0;entryY=0.5;entryDx=0;entryDy=0;" parent="1" source="wt-aQSrJydBZdkq5_UEP-6" target="00JM_ZhNrvVwOaPGAAfQ-19" edge="1">
          <mxGeometry width="50" height="50" relative="1" as="geometry">
            <mxPoint x="410" y="690" as="sourcePoint" />
            <mxPoint x="460" y="640" as="targetPoint" />
            <Array as="points">
              <mxPoint x="510" y="520" />
            </Array>
          </mxGeometry>
        </mxCell>
        <mxCell id="00JM_ZhNrvVwOaPGAAfQ-21" value="1" style="edgeLabel;html=1;align=center;verticalAlign=middle;resizable=0;points=[];" parent="00JM_ZhNrvVwOaPGAAfQ-20" vertex="1" connectable="0">
          <mxGeometry x="0.5377" y="3" relative="1" as="geometry">
            <mxPoint x="15" y="-7" as="offset" />
          </mxGeometry>
        </mxCell>
        <mxCell id="00JM_ZhNrvVwOaPGAAfQ-22" value="&amp;lt;&amp;lt;value&amp;gt;&amp;gt;&lt;div&gt;&amp;lt;&amp;lt;unique&amp;gt;&amp;gt;&lt;br&gt;&lt;div&gt;PhoneNumber&lt;/div&gt;&lt;/div&gt;" style="whiteSpace=wrap;html=1;" parent="1" vertex="1">
          <mxGeometry x="565" y="570" width="120" height="60" as="geometry" />
        </mxCell>
        <mxCell id="00JM_ZhNrvVwOaPGAAfQ-23" value="" style="endArrow=classic;html=1;rounded=0;entryX=0;entryY=0.5;entryDx=0;entryDy=0;" parent="1" target="00JM_ZhNrvVwOaPGAAfQ-22" edge="1">
          <mxGeometry width="50" height="50" relative="1" as="geometry">
            <mxPoint x="390" y="520" as="sourcePoint" />
            <mxPoint x="400" y="640" as="targetPoint" />
            <Array as="points">
              <mxPoint x="510" y="520" />
              <mxPoint x="510" y="600" />
            </Array>
          </mxGeometry>
        </mxCell>
        <mxCell id="00JM_ZhNrvVwOaPGAAfQ-24" value="1" style="edgeLabel;html=1;align=center;verticalAlign=middle;resizable=0;points=[];" parent="00JM_ZhNrvVwOaPGAAfQ-23" vertex="1" connectable="0">
          <mxGeometry x="0.7554" relative="1" as="geometry">
            <mxPoint x="6" y="-15" as="offset" />
          </mxGeometry>
        </mxCell>
        <mxCell id="00JM_ZhNrvVwOaPGAAfQ-25" value="&amp;lt;&amp;lt;value&amp;gt;&amp;gt;&lt;div&gt;Allergy&lt;/div&gt;" style="whiteSpace=wrap;html=1;" parent="1" vertex="1">
          <mxGeometry x="365" y="750" width="120" height="60" as="geometry" />
        </mxCell>
        <mxCell id="00JM_ZhNrvVwOaPGAAfQ-26" value="" style="endArrow=classic;html=1;rounded=0;exitX=0.5;exitY=1;exitDx=0;exitDy=0;entryX=0;entryY=0.5;entryDx=0;entryDy=0;" parent="1" source="wt-aQSrJydBZdkq5_UEP-6" target="00JM_ZhNrvVwOaPGAAfQ-25" edge="1">
          <mxGeometry width="50" height="50" relative="1" as="geometry">
            <mxPoint x="300" y="690" as="sourcePoint" />
            <mxPoint x="350" y="640" as="targetPoint" />
            <Array as="points">
              <mxPoint x="330" y="780" />
            </Array>
          </mxGeometry>
        </mxCell>
        <mxCell id="00JM_ZhNrvVwOaPGAAfQ-27" value="*" style="edgeLabel;html=1;align=center;verticalAlign=middle;resizable=0;points=[];" parent="00JM_ZhNrvVwOaPGAAfQ-26" vertex="1" connectable="0">
          <mxGeometry x="0.8643" y="1" relative="1" as="geometry">
            <mxPoint x="9" y="-9" as="offset" />
          </mxGeometry>
        </mxCell>
        <mxCell id="00JM_ZhNrvVwOaPGAAfQ-28" value="&amp;lt;&amp;lt;root&amp;gt;&amp;gt;&lt;div&gt;&amp;lt;&amp;lt;entity&amp;gt;&amp;gt;&lt;/div&gt;&lt;div&gt;Staff&lt;/div&gt;" style="whiteSpace=wrap;html=1;" parent="1" vertex="1">
          <mxGeometry x="850" y="490" width="120" height="60" as="geometry" />
        </mxCell>
        <mxCell id="00JM_ZhNrvVwOaPGAAfQ-30" value="Staff" style="shape=umlFrame;whiteSpace=wrap;html=1;pointerEvents=0;" parent="1" vertex="1">
          <mxGeometry x="550" y="450" width="460" height="420" as="geometry" />
        </mxCell>
        <mxCell id="00JM_ZhNrvVwOaPGAAfQ-31" value="&amp;lt;&amp;lt;value&amp;gt;&amp;gt;&lt;div&gt;FullName&lt;/div&gt;" style="whiteSpace=wrap;html=1;" parent="1" vertex="1">
          <mxGeometry x="570" y="640" width="110" height="60" as="geometry" />
        </mxCell>
        <mxCell id="00JM_ZhNrvVwOaPGAAfQ-35" value="&amp;lt;&amp;lt;derived&amp;gt;&amp;gt;&lt;div&gt;LastName&lt;/div&gt;" style="whiteSpace=wrap;html=1;" parent="1" vertex="1">
          <mxGeometry x="570" y="780" width="110" height="60" as="geometry" />
        </mxCell>
        <mxCell id="00JM_ZhNrvVwOaPGAAfQ-41" value="" style="endArrow=classic;html=1;rounded=0;exitX=0.75;exitY=0;exitDx=0;exitDy=0;entryX=0.5;entryY=1;entryDx=0;entryDy=0;" parent="1" source="00JM_ZhNrvVwOaPGAAfQ-28" target="v8suukQ3Q1kWvmqkOaev-53" edge="1">
          <mxGeometry width="50" height="50" relative="1" as="geometry">
            <mxPoint x="960" y="500" as="sourcePoint" />
            <mxPoint x="870" y="340" as="targetPoint" />
          </mxGeometry>
        </mxCell>
        <mxCell id="00JM_ZhNrvVwOaPGAAfQ-42" value="1" style="edgeLabel;html=1;align=center;verticalAlign=middle;resizable=0;points=[];" parent="00JM_ZhNrvVwOaPGAAfQ-41" vertex="1" connectable="0">
          <mxGeometry x="0.5703" y="-2" relative="1" as="geometry">
            <mxPoint y="-17" as="offset" />
          </mxGeometry>
        </mxCell>
        <mxCell id="00JM_ZhNrvVwOaPGAAfQ-55" value="&amp;lt;&amp;lt;root&amp;gt;&amp;gt;&lt;div&gt;&amp;lt;&amp;lt;entity&amp;gt;&amp;gt;&lt;br&gt;&lt;div&gt;Specialization&lt;/div&gt;&lt;/div&gt;" style="whiteSpace=wrap;html=1;" parent="1" vertex="1">
          <mxGeometry x="650" y="330" width="110" height="60" as="geometry" />
        </mxCell>
        <mxCell id="00JM_ZhNrvVwOaPGAAfQ-56" value="&amp;lt;&amp;lt;value&amp;gt;&amp;gt;&lt;div&gt;AvailableSlot&lt;/div&gt;" style="whiteSpace=wrap;html=1;" parent="1" vertex="1">
          <mxGeometry x="760" y="780" width="120" height="60" as="geometry" />
        </mxCell>
        <mxCell id="00JM_ZhNrvVwOaPGAAfQ-70" value="Appointment" style="shape=umlFrame;whiteSpace=wrap;html=1;pointerEvents=0;width=80;height=30;" parent="1" vertex="1">
          <mxGeometry x="-200" y="450" width="360" height="210" as="geometry" />
        </mxCell>
        <mxCell id="00JM_ZhNrvVwOaPGAAfQ-71" value="&amp;lt;&amp;lt;root&amp;gt;&amp;gt;&lt;div&gt;&amp;lt;&amp;lt;entity&amp;gt;&amp;gt;&lt;/div&gt;&lt;div&gt;Appointment&lt;/div&gt;" style="whiteSpace=wrap;html=1;" parent="1" vertex="1">
          <mxGeometry x="20" y="480" width="120" height="60" as="geometry" />
        </mxCell>
        <mxCell id="00JM_ZhNrvVwOaPGAAfQ-72" value="" style="endArrow=classic;html=1;rounded=0;exitX=0.75;exitY=0;exitDx=0;exitDy=0;entryX=0.25;entryY=1;entryDx=0;entryDy=0;" parent="1" source="00JM_ZhNrvVwOaPGAAfQ-71" target="wt-aQSrJydBZdkq5_UEP-1" edge="1">
          <mxGeometry width="50" height="50" relative="1" as="geometry">
            <mxPoint x="120" y="520" as="sourcePoint" />
            <mxPoint x="170" y="470" as="targetPoint" />
          </mxGeometry>
        </mxCell>
        <mxCell id="00JM_ZhNrvVwOaPGAAfQ-73" value="1" style="edgeLabel;html=1;align=center;verticalAlign=middle;resizable=0;points=[];" parent="00JM_ZhNrvVwOaPGAAfQ-72" vertex="1" connectable="0">
          <mxGeometry x="0.8652" y="-2" relative="1" as="geometry">
            <mxPoint x="9" y="3" as="offset" />
          </mxGeometry>
        </mxCell>
        <mxCell id="00JM_ZhNrvVwOaPGAAfQ-74" value="&amp;lt;&amp;lt;value&amp;gt;&amp;gt;&lt;div&gt;DateTime&lt;/div&gt;" style="whiteSpace=wrap;html=1;" parent="1" vertex="1">
          <mxGeometry x="-170" y="570" width="120" height="60" as="geometry" />
        </mxCell>
        <mxCell id="00JM_ZhNrvVwOaPGAAfQ-77" value="&amp;lt;&amp;lt;enum&amp;gt;&amp;gt;&lt;div&gt;AppointmentStatus&lt;/div&gt;" style="whiteSpace=wrap;html=1;" parent="1" vertex="1">
          <mxGeometry x="-170" y="490" width="120" height="60" as="geometry" />
        </mxCell>
        <mxCell id="00JM_ZhNrvVwOaPGAAfQ-82" style="edgeStyle=orthogonalEdgeStyle;rounded=0;orthogonalLoop=1;jettySize=auto;html=1;exitX=0;exitY=0.5;exitDx=0;exitDy=0;entryX=0.988;entryY=0.333;entryDx=0;entryDy=0;entryPerimeter=0;" parent="1" source="00JM_ZhNrvVwOaPGAAfQ-71" target="00JM_ZhNrvVwOaPGAAfQ-77" edge="1">
          <mxGeometry relative="1" as="geometry" />
        </mxCell>
        <mxCell id="00JM_ZhNrvVwOaPGAAfQ-83" value="1" style="edgeLabel;html=1;align=center;verticalAlign=middle;resizable=0;points=[];" parent="00JM_ZhNrvVwOaPGAAfQ-82" vertex="1" connectable="0">
          <mxGeometry x="0.342" y="2" relative="1" as="geometry">
            <mxPoint y="-12" as="offset" />
          </mxGeometry>
        </mxCell>
        <mxCell id="00JM_ZhNrvVwOaPGAAfQ-84" value="" style="endArrow=classic;html=1;rounded=0;exitX=0;exitY=0.5;exitDx=0;exitDy=0;entryX=1;entryY=0.5;entryDx=0;entryDy=0;" parent="1" source="00JM_ZhNrvVwOaPGAAfQ-71" target="00JM_ZhNrvVwOaPGAAfQ-74" edge="1">
          <mxGeometry width="50" height="50" relative="1" as="geometry">
            <mxPoint x="-50" y="630" as="sourcePoint" />
            <mxPoint y="580" as="targetPoint" />
            <Array as="points">
              <mxPoint x="-20" y="510" />
              <mxPoint x="-20" y="600" />
            </Array>
          </mxGeometry>
        </mxCell>
        <mxCell id="00JM_ZhNrvVwOaPGAAfQ-85" value="1" style="edgeLabel;html=1;align=center;verticalAlign=middle;resizable=0;points=[];" parent="00JM_ZhNrvVwOaPGAAfQ-84" vertex="1" connectable="0">
          <mxGeometry x="0.8202" relative="1" as="geometry">
            <mxPoint y="-10" as="offset" />
          </mxGeometry>
        </mxCell>
        <mxCell id="00JM_ZhNrvVwOaPGAAfQ-87" value="SurgeryRoom" style="shape=umlFrame;whiteSpace=wrap;html=1;pointerEvents=0;width=90;height=30;" parent="1" vertex="1">
          <mxGeometry x="-200" y="680" width="360" height="300" as="geometry" />
        </mxCell>
        <mxCell id="00JM_ZhNrvVwOaPGAAfQ-93" value="&amp;lt;&amp;lt;root&amp;gt;&amp;gt;&lt;div&gt;&amp;lt;&amp;lt;entity&amp;gt;&amp;gt;&lt;/div&gt;&lt;div&gt;SurgeryRoom&lt;/div&gt;" style="whiteSpace=wrap;html=1;" parent="1" vertex="1">
          <mxGeometry x="20" y="710" width="120" height="60" as="geometry" />
        </mxCell>
        <mxCell id="00JM_ZhNrvVwOaPGAAfQ-94" value="&amp;lt;&amp;lt;id&amp;gt;&amp;gt;&lt;div&gt;RoomNumber&lt;/div&gt;" style="whiteSpace=wrap;html=1;" parent="1" vertex="1">
          <mxGeometry x="20" y="810" width="120" height="60" as="geometry" />
        </mxCell>
        <mxCell id="00JM_ZhNrvVwOaPGAAfQ-96" value="Specialization" style="shape=umlFrame;whiteSpace=wrap;html=1;pointerEvents=0;width=90;height=30;" parent="1" vertex="1">
          <mxGeometry x="640" y="270" width="250" height="150" as="geometry" />
        </mxCell>
        <mxCell id="00JM_ZhNrvVwOaPGAAfQ-98" value="" style="endArrow=classic;html=1;rounded=0;exitX=0.75;exitY=1;exitDx=0;exitDy=0;entryX=0.75;entryY=0;entryDx=0;entryDy=0;" parent="1" source="00JM_ZhNrvVwOaPGAAfQ-93" target="00JM_ZhNrvVwOaPGAAfQ-94" edge="1">
          <mxGeometry width="50" height="50" relative="1" as="geometry">
            <mxPoint x="60" y="800" as="sourcePoint" />
            <mxPoint x="110" y="750" as="targetPoint" />
          </mxGeometry>
        </mxCell>
        <mxCell id="00JM_ZhNrvVwOaPGAAfQ-99" value="1" style="edgeLabel;html=1;align=center;verticalAlign=middle;resizable=0;points=[];" parent="00JM_ZhNrvVwOaPGAAfQ-98" vertex="1" connectable="0">
          <mxGeometry x="0.3992" y="1" relative="1" as="geometry">
            <mxPoint x="9" y="-3" as="offset" />
          </mxGeometry>
        </mxCell>
        <mxCell id="00JM_ZhNrvVwOaPGAAfQ-100" value="&amp;lt;&amp;lt;enum&amp;gt;&amp;gt;&lt;div&gt;RoomType&lt;/div&gt;" style="whiteSpace=wrap;html=1;" parent="1" vertex="1">
          <mxGeometry x="-160" y="720" width="100" height="40" as="geometry" />
        </mxCell>
        <mxCell id="00JM_ZhNrvVwOaPGAAfQ-101" value="" style="endArrow=classic;html=1;rounded=0;exitX=0;exitY=0.5;exitDx=0;exitDy=0;entryX=1;entryY=0.5;entryDx=0;entryDy=0;" parent="1" source="00JM_ZhNrvVwOaPGAAfQ-93" target="00JM_ZhNrvVwOaPGAAfQ-100" edge="1">
          <mxGeometry width="50" height="50" relative="1" as="geometry">
            <mxPoint x="-80" y="770" as="sourcePoint" />
            <mxPoint x="-30" y="720" as="targetPoint" />
          </mxGeometry>
        </mxCell>
        <mxCell id="00JM_ZhNrvVwOaPGAAfQ-102" value="1" style="edgeLabel;html=1;align=center;verticalAlign=middle;resizable=0;points=[];" parent="00JM_ZhNrvVwOaPGAAfQ-101" vertex="1" connectable="0">
          <mxGeometry x="0.2967" y="-1" relative="1" as="geometry">
            <mxPoint x="-4" y="-15" as="offset" />
          </mxGeometry>
        </mxCell>
        <mxCell id="00JM_ZhNrvVwOaPGAAfQ-103" value="&amp;lt;&amp;lt;enum&amp;gt;&amp;gt;&lt;div&gt;RoomStatus&lt;/div&gt;" style="whiteSpace=wrap;html=1;" parent="1" vertex="1">
          <mxGeometry x="-160" y="770" width="100" height="40" as="geometry" />
        </mxCell>
        <mxCell id="00JM_ZhNrvVwOaPGAAfQ-104" value="" style="endArrow=classic;html=1;rounded=0;exitX=0;exitY=0.5;exitDx=0;exitDy=0;entryX=1;entryY=0.5;entryDx=0;entryDy=0;" parent="1" target="00JM_ZhNrvVwOaPGAAfQ-103" edge="1">
          <mxGeometry width="50" height="50" relative="1" as="geometry">
            <mxPoint y="740" as="sourcePoint" />
            <mxPoint x="-30" y="740" as="targetPoint" />
            <Array as="points">
              <mxPoint x="-20" y="740" />
              <mxPoint x="-20" y="790" />
            </Array>
          </mxGeometry>
        </mxCell>
        <mxCell id="00JM_ZhNrvVwOaPGAAfQ-105" value="1" style="edgeLabel;html=1;align=center;verticalAlign=middle;resizable=0;points=[];" parent="00JM_ZhNrvVwOaPGAAfQ-104" vertex="1" connectable="0">
          <mxGeometry x="0.2967" y="-1" relative="1" as="geometry">
            <mxPoint x="-28" y="-9" as="offset" />
          </mxGeometry>
        </mxCell>
        <mxCell id="00JM_ZhNrvVwOaPGAAfQ-106" value="&amp;lt;&amp;lt;value&amp;gt;&amp;gt;&lt;div&gt;Capacity&lt;/div&gt;" style="whiteSpace=wrap;html=1;" parent="1" vertex="1">
          <mxGeometry x="-160" y="820" width="100" height="40" as="geometry" />
        </mxCell>
        <mxCell id="00JM_ZhNrvVwOaPGAAfQ-107" value="" style="endArrow=classic;html=1;rounded=0;exitX=0;exitY=0.5;exitDx=0;exitDy=0;entryX=1;entryY=0.5;entryDx=0;entryDy=0;" parent="1" target="00JM_ZhNrvVwOaPGAAfQ-106" edge="1">
          <mxGeometry width="50" height="50" relative="1" as="geometry">
            <mxPoint x="20" y="740" as="sourcePoint" />
            <mxPoint x="-40" y="790" as="targetPoint" />
            <Array as="points">
              <mxPoint x="-20" y="740" />
              <mxPoint x="-20" y="840" />
            </Array>
          </mxGeometry>
        </mxCell>
        <mxCell id="00JM_ZhNrvVwOaPGAAfQ-108" value="1" style="edgeLabel;html=1;align=center;verticalAlign=middle;resizable=0;points=[];" parent="00JM_ZhNrvVwOaPGAAfQ-107" vertex="1" connectable="0">
          <mxGeometry x="0.2967" y="-1" relative="1" as="geometry">
            <mxPoint x="-29" y="13" as="offset" />
          </mxGeometry>
        </mxCell>
        <mxCell id="00JM_ZhNrvVwOaPGAAfQ-109" value="&amp;lt;&amp;lt;value&amp;gt;&amp;gt;&lt;div&gt;AssignedEquipment&lt;/div&gt;" style="whiteSpace=wrap;html=1;" parent="1" vertex="1">
          <mxGeometry x="-180" y="870" width="120" height="40" as="geometry" />
        </mxCell>
        <mxCell id="00JM_ZhNrvVwOaPGAAfQ-110" value="" style="endArrow=classic;html=1;rounded=0;exitX=0;exitY=0.5;exitDx=0;exitDy=0;entryX=1;entryY=0.5;entryDx=0;entryDy=0;" parent="1" target="00JM_ZhNrvVwOaPGAAfQ-109" edge="1">
          <mxGeometry width="50" height="50" relative="1" as="geometry">
            <mxPoint x="20" y="740" as="sourcePoint" />
            <mxPoint x="-50" y="890" as="targetPoint" />
            <Array as="points">
              <mxPoint x="-20" y="740" />
              <mxPoint x="-20" y="890" />
            </Array>
          </mxGeometry>
        </mxCell>
        <mxCell id="00JM_ZhNrvVwOaPGAAfQ-111" value="1..*" style="edgeLabel;html=1;align=center;verticalAlign=middle;resizable=0;points=[];" parent="00JM_ZhNrvVwOaPGAAfQ-110" vertex="1" connectable="0">
          <mxGeometry x="0.2967" y="-1" relative="1" as="geometry">
            <mxPoint x="-19" y="31" as="offset" />
          </mxGeometry>
        </mxCell>
        <mxCell id="00JM_ZhNrvVwOaPGAAfQ-112" value="&amp;lt;&amp;lt;value&amp;gt;&amp;gt;&lt;div&gt;MaintenanceSlot&lt;/div&gt;" style="whiteSpace=wrap;html=1;" parent="1" vertex="1">
          <mxGeometry x="-180" y="920" width="120" height="40" as="geometry" />
        </mxCell>
        <mxCell id="00JM_ZhNrvVwOaPGAAfQ-113" value="" style="endArrow=classic;html=1;rounded=0;exitX=0;exitY=0.5;exitDx=0;exitDy=0;entryX=1;entryY=0.5;entryDx=0;entryDy=0;" parent="1" target="00JM_ZhNrvVwOaPGAAfQ-112" edge="1">
          <mxGeometry width="50" height="50" relative="1" as="geometry">
            <mxPoint x="20" y="740" as="sourcePoint" />
            <mxPoint x="-60" y="890" as="targetPoint" />
            <Array as="points">
              <mxPoint x="-20" y="740" />
              <mxPoint x="-20" y="940" />
            </Array>
          </mxGeometry>
        </mxCell>
        <mxCell id="00JM_ZhNrvVwOaPGAAfQ-114" value="1..*" style="edgeLabel;html=1;align=center;verticalAlign=middle;resizable=0;points=[];" parent="00JM_ZhNrvVwOaPGAAfQ-113" vertex="1" connectable="0">
          <mxGeometry x="0.2967" y="-1" relative="1" as="geometry">
            <mxPoint x="-19" y="48" as="offset" />
          </mxGeometry>
        </mxCell>
        <mxCell id="8S-xRrLJWilpk1Cq8pcS-2" value="" style="endArrow=classic;html=1;rounded=0;exitX=0.5;exitY=1;exitDx=0;exitDy=0;entryX=0.5;entryY=0;entryDx=0;entryDy=0;" parent="1" source="00JM_ZhNrvVwOaPGAAfQ-71" target="00JM_ZhNrvVwOaPGAAfQ-93" edge="1">
          <mxGeometry width="50" height="50" relative="1" as="geometry">
            <mxPoint x="390" y="670" as="sourcePoint" />
            <mxPoint x="440" y="620" as="targetPoint" />
          </mxGeometry>
        </mxCell>
        <mxCell id="8S-xRrLJWilpk1Cq8pcS-3" value="&amp;lt;&amp;lt;value&amp;gt;&amp;gt;&lt;div&gt;Name&lt;/div&gt;" style="whiteSpace=wrap;html=1;" parent="1" vertex="1">
          <mxGeometry x="790" y="330" width="80" height="60" as="geometry" />
        </mxCell>
        <mxCell id="8S-xRrLJWilpk1Cq8pcS-5" value="" style="endArrow=classic;html=1;rounded=0;exitX=1;exitY=0.25;exitDx=0;exitDy=0;entryX=0;entryY=0.25;entryDx=0;entryDy=0;" parent="1" source="00JM_ZhNrvVwOaPGAAfQ-55" target="8S-xRrLJWilpk1Cq8pcS-3" edge="1">
          <mxGeometry width="50" height="50" relative="1" as="geometry">
            <mxPoint x="790" y="390" as="sourcePoint" />
            <mxPoint x="840" y="340" as="targetPoint" />
          </mxGeometry>
        </mxCell>
        <mxCell id="8S-xRrLJWilpk1Cq8pcS-6" value="1" style="edgeLabel;html=1;align=center;verticalAlign=middle;resizable=0;points=[];" parent="8S-xRrLJWilpk1Cq8pcS-5" vertex="1" connectable="0">
          <mxGeometry x="0.089" relative="1" as="geometry">
            <mxPoint x="-1" y="-14" as="offset" />
          </mxGeometry>
        </mxCell>
        <mxCell id="v8suukQ3Q1kWvmqkOaev-4" value="" style="endArrow=classic;html=1;rounded=0;exitX=0;exitY=0.5;exitDx=0;exitDy=0;entryX=1;entryY=0.5;entryDx=0;entryDy=0;" parent="1" source="00JM_ZhNrvVwOaPGAAfQ-28" target="00JM_ZhNrvVwOaPGAAfQ-31" edge="1">
          <mxGeometry width="50" height="50" relative="1" as="geometry">
            <mxPoint x="820" y="630" as="sourcePoint" />
            <mxPoint x="710" y="520" as="targetPoint" />
            <Array as="points">
              <mxPoint x="740" y="520" />
              <mxPoint x="740" y="670" />
            </Array>
          </mxGeometry>
        </mxCell>
        <mxCell id="v8suukQ3Q1kWvmqkOaev-5" value="1" style="edgeLabel;html=1;align=center;verticalAlign=middle;resizable=0;points=[];" parent="v8suukQ3Q1kWvmqkOaev-4" vertex="1" connectable="0">
          <mxGeometry x="0.5986" relative="1" as="geometry">
            <mxPoint x="-20" y="-6" as="offset" />
          </mxGeometry>
        </mxCell>
        <mxCell id="v8suukQ3Q1kWvmqkOaev-26" value="&amp;lt;&amp;lt;enum&amp;gt;&amp;gt;&lt;div&gt;RequestStatus&lt;/div&gt;" style="whiteSpace=wrap;html=1;" parent="1" vertex="1">
          <mxGeometry x="450" y="350" width="120" height="60" as="geometry" />
        </mxCell>
        <mxCell id="v8suukQ3Q1kWvmqkOaev-27" value="" style="endArrow=classic;html=1;rounded=0;exitX=0.75;exitY=1;exitDx=0;exitDy=0;entryX=0;entryY=0.5;entryDx=0;entryDy=0;" parent="1" source="wt-aQSrJydBZdkq5_UEP-1" target="v8suukQ3Q1kWvmqkOaev-26" edge="1">
          <mxGeometry width="50" height="50" relative="1" as="geometry">
            <mxPoint x="150" y="440" as="sourcePoint" />
            <mxPoint x="200" y="390" as="targetPoint" />
          </mxGeometry>
        </mxCell>
        <mxCell id="v8suukQ3Q1kWvmqkOaev-28" value="1" style="edgeLabel;html=1;align=center;verticalAlign=middle;resizable=0;points=[];" parent="v8suukQ3Q1kWvmqkOaev-27" vertex="1" connectable="0">
          <mxGeometry x="0.8364" relative="1" as="geometry">
            <mxPoint x="1" y="-9" as="offset" />
          </mxGeometry>
        </mxCell>
        <mxCell id="v8suukQ3Q1kWvmqkOaev-39" value="" style="endArrow=classic;html=1;rounded=0;exitX=0.75;exitY=0;exitDx=0;exitDy=0;entryX=0.42;entryY=-0.007;entryDx=0;entryDy=0;entryPerimeter=0;" parent="1" source="wt-aQSrJydBZdkq5_UEP-1" target="00JM_ZhNrvVwOaPGAAfQ-28" edge="1">
          <mxGeometry width="50" height="50" relative="1" as="geometry">
            <mxPoint x="540" y="340" as="sourcePoint" />
            <mxPoint x="900" y="480" as="targetPoint" />
            <Array as="points">
              <mxPoint x="310" y="100" />
              <mxPoint x="900" y="100" />
              <mxPoint x="900" y="430" />
            </Array>
          </mxGeometry>
        </mxCell>
        <mxCell id="v8suukQ3Q1kWvmqkOaev-40" value="1" style="edgeLabel;html=1;align=center;verticalAlign=middle;resizable=0;points=[];" parent="v8suukQ3Q1kWvmqkOaev-39" vertex="1" connectable="0">
          <mxGeometry x="0.9746" y="1" relative="1" as="geometry">
            <mxPoint x="7" as="offset" />
          </mxGeometry>
        </mxCell>
        <mxCell id="v8suukQ3Q1kWvmqkOaev-41" value="" style="endArrow=none;dashed=1;html=1;dashPattern=1 3;strokeWidth=2;rounded=0;" parent="1" edge="1">
          <mxGeometry width="50" height="50" relative="1" as="geometry">
            <mxPoint x="800" y="100" as="sourcePoint" />
            <mxPoint x="850" y="70" as="targetPoint" />
          </mxGeometry>
        </mxCell>
        <mxCell id="v8suukQ3Q1kWvmqkOaev-42" value="&lt;b&gt;Staff.StaffRole.StaffRoleName = Doctor&lt;/b&gt;" style="rounded=1;whiteSpace=wrap;html=1;" parent="1" vertex="1">
          <mxGeometry x="850" y="40" width="250" height="40" as="geometry" />
        </mxCell>
        <mxCell id="v8suukQ3Q1kWvmqkOaev-52" value="StaffRole" style="shape=umlFrame;whiteSpace=wrap;html=1;pointerEvents=0;width=60;height=30;" parent="1" vertex="1">
          <mxGeometry x="950" y="240" width="310" height="180" as="geometry" />
        </mxCell>
        <mxCell id="v8suukQ3Q1kWvmqkOaev-53" value="&amp;lt;&amp;lt;root&amp;gt;&amp;gt;&lt;div&gt;&amp;lt;&amp;lt;entity&amp;gt;&amp;gt;&lt;br&gt;&lt;div&gt;StaffRole&lt;/div&gt;&lt;/div&gt;" style="whiteSpace=wrap;html=1;" parent="1" vertex="1">
          <mxGeometry x="1000" y="285" width="80" height="60" as="geometry" />
        </mxCell>
        <mxCell id="v8suukQ3Q1kWvmqkOaev-54" value="&amp;lt;&amp;lt;enum&amp;gt;&amp;gt;&lt;div&gt;StaffRoleName&lt;/div&gt;" style="whiteSpace=wrap;html=1;" parent="1" vertex="1">
          <mxGeometry x="1120" y="285" width="90" height="60" as="geometry" />
        </mxCell>
        <mxCell id="v8suukQ3Q1kWvmqkOaev-55" value="&amp;lt;&amp;lt;enum&amp;gt;&amp;gt;&lt;div&gt;DoctorType&lt;/div&gt;" style="whiteSpace=wrap;html=1;" parent="1" vertex="1">
          <mxGeometry x="1120" y="350" width="90" height="60" as="geometry" />
        </mxCell>
        <mxCell id="v8suukQ3Q1kWvmqkOaev-60" value="" style="endArrow=classic;html=1;rounded=0;exitX=0;exitY=0.5;exitDx=0;exitDy=0;entryX=0.5;entryY=0;entryDx=0;entryDy=0;" parent="1" source="v8suukQ3Q1kWvmqkOaev-53" target="00JM_ZhNrvVwOaPGAAfQ-55" edge="1">
          <mxGeometry width="50" height="50" relative="1" as="geometry">
            <mxPoint x="890" y="360" as="sourcePoint" />
            <mxPoint x="940" y="310" as="targetPoint" />
            <Array as="points">
              <mxPoint x="705" y="315" />
            </Array>
          </mxGeometry>
        </mxCell>
        <mxCell id="v8suukQ3Q1kWvmqkOaev-61" value="1" style="edgeLabel;html=1;align=center;verticalAlign=middle;resizable=0;points=[];" parent="v8suukQ3Q1kWvmqkOaev-60" vertex="1" connectable="0">
          <mxGeometry x="0.9221" relative="1" as="geometry">
            <mxPoint x="-15" y="-3" as="offset" />
          </mxGeometry>
        </mxCell>
        <mxCell id="v8suukQ3Q1kWvmqkOaev-62" value="" style="endArrow=classic;html=1;rounded=0;exitX=1;exitY=0.5;exitDx=0;exitDy=0;entryX=0;entryY=0.5;entryDx=0;entryDy=0;" parent="1" source="v8suukQ3Q1kWvmqkOaev-53" target="v8suukQ3Q1kWvmqkOaev-54" edge="1">
          <mxGeometry width="50" height="50" relative="1" as="geometry">
            <mxPoint x="940" y="370" as="sourcePoint" />
            <mxPoint x="990" y="320" as="targetPoint" />
          </mxGeometry>
        </mxCell>
        <mxCell id="v8suukQ3Q1kWvmqkOaev-63" value="1" style="edgeLabel;html=1;align=center;verticalAlign=middle;resizable=0;points=[];" parent="v8suukQ3Q1kWvmqkOaev-62" vertex="1" connectable="0">
          <mxGeometry x="0.3738" relative="1" as="geometry">
            <mxPoint x="-3" y="-15" as="offset" />
          </mxGeometry>
        </mxCell>
        <mxCell id="v8suukQ3Q1kWvmqkOaev-64" value="" style="endArrow=classic;html=1;rounded=0;exitX=1;exitY=0.5;exitDx=0;exitDy=0;entryX=0;entryY=0.5;entryDx=0;entryDy=0;" parent="1" source="v8suukQ3Q1kWvmqkOaev-53" target="v8suukQ3Q1kWvmqkOaev-55" edge="1">
          <mxGeometry width="50" height="50" relative="1" as="geometry">
            <mxPoint x="940" y="370" as="sourcePoint" />
            <mxPoint x="990" y="320" as="targetPoint" />
            <Array as="points">
              <mxPoint x="1100" y="315" />
              <mxPoint x="1100" y="380" />
            </Array>
          </mxGeometry>
        </mxCell>
        <mxCell id="v8suukQ3Q1kWvmqkOaev-65" value="0..1" style="edgeLabel;html=1;align=center;verticalAlign=middle;resizable=0;points=[];" parent="v8suukQ3Q1kWvmqkOaev-64" vertex="1" connectable="0">
          <mxGeometry x="0.7524" y="1" relative="1" as="geometry">
            <mxPoint x="-7" y="11" as="offset" />
          </mxGeometry>
        </mxCell>
        <mxCell id="v8suukQ3Q1kWvmqkOaev-66" value="" style="endArrow=classic;html=1;rounded=0;entryX=0.5;entryY=0;entryDx=0;entryDy=0;exitX=0.5;exitY=0;exitDx=0;exitDy=0;" parent="1" source="wt-aQSrJydBZdkq5_UEP-2" target="v8suukQ3Q1kWvmqkOaev-53" edge="1">
          <mxGeometry width="50" height="50" relative="1" as="geometry">
            <mxPoint x="410" y="310" as="sourcePoint" />
            <mxPoint x="460" y="260" as="targetPoint" />
            <Array as="points">
              <mxPoint x="10" y="130" />
              <mxPoint x="1040" y="130" />
            </Array>
          </mxGeometry>
        </mxCell>
        <mxCell id="v8suukQ3Q1kWvmqkOaev-67" value="1..*" style="edgeLabel;html=1;align=center;verticalAlign=middle;resizable=0;points=[];" parent="v8suukQ3Q1kWvmqkOaev-66" vertex="1" connectable="0">
          <mxGeometry x="0.9736" y="-1" relative="1" as="geometry">
            <mxPoint x="21" y="1" as="offset" />
          </mxGeometry>
        </mxCell>
        <mxCell id="eLeBJTTPtMBUgs7N4k0F-3" value="&amp;lt;&amp;lt;value&amp;gt;&amp;gt;&lt;div&gt;AnaesthesiaTime&lt;/div&gt;" style="whiteSpace=wrap;html=1;" parent="1" vertex="1">
          <mxGeometry x="-310" y="190" width="100" height="60" as="geometry" />
        </mxCell>
        <mxCell id="eLeBJTTPtMBUgs7N4k0F-4" value="&amp;lt;&amp;lt;value&amp;gt;&amp;gt;&lt;div&gt;CleaningTime&lt;/div&gt;" style="whiteSpace=wrap;html=1;" parent="1" vertex="1">
          <mxGeometry x="-310" y="330" width="100" height="60" as="geometry" />
        </mxCell>
        <mxCell id="eLeBJTTPtMBUgs7N4k0F-5" value="&amp;lt;&amp;lt;value&amp;gt;&amp;gt;&lt;div&gt;SurgeryTime&lt;/div&gt;" style="whiteSpace=wrap;html=1;" parent="1" vertex="1">
          <mxGeometry x="-310" y="260" width="100" height="60" as="geometry" />
        </mxCell>
        <mxCell id="00JM_ZhNrvVwOaPGAAfQ-34" value="&amp;lt;&amp;lt;derived&amp;gt;&amp;gt;&lt;div&gt;FirstName&lt;/div&gt;" style="whiteSpace=wrap;html=1;" parent="1" vertex="1">
          <mxGeometry x="570" y="710" width="110" height="60" as="geometry" />
        </mxCell>
        <mxCell id="fWtlNmu1bt0CNakBBD50-8" value="" style="endArrow=classic;html=1;rounded=0;exitX=1;exitY=0.5;exitDx=0;exitDy=0;entryX=0;entryY=0.5;entryDx=0;entryDy=0;" edge="1" parent="1" source="wt-aQSrJydBZdkq5_UEP-6" target="00JM_ZhNrvVwOaPGAAfQ-31">
          <mxGeometry width="50" height="50" relative="1" as="geometry">
            <mxPoint x="570" y="640" as="sourcePoint" />
            <mxPoint x="550" y="520" as="targetPoint" />
            <Array as="points">
              <mxPoint x="510" y="520" />
              <mxPoint x="510" y="670" />
            </Array>
          </mxGeometry>
        </mxCell>
        <mxCell id="fWtlNmu1bt0CNakBBD50-9" value="1" style="edgeLabel;html=1;align=center;verticalAlign=middle;resizable=0;points=[];" vertex="1" connectable="0" parent="fWtlNmu1bt0CNakBBD50-8">
          <mxGeometry x="0.8326" y="2" relative="1" as="geometry">
            <mxPoint x="1" y="-8" as="offset" />
          </mxGeometry>
        </mxCell>
        <mxCell id="Xy9ZclyO9K5CkUSjJzX3-1" value="&amp;lt;&amp;lt;value&amp;gt;&amp;gt;&lt;div&gt;&amp;lt;&amp;lt;unique&amp;gt;&amp;gt;&lt;br&gt;&lt;div&gt;LicenseNumber&lt;br&gt;&lt;/div&gt;&lt;/div&gt;" style="whiteSpace=wrap;html=1;" parent="1" vertex="1">
          <mxGeometry x="760" y="690" width="120" height="60" as="geometry" />
        </mxCell>
        <mxCell id="00JM_ZhNrvVwOaPGAAfQ-43" value="&amp;lt;&amp;lt;id&amp;gt;&amp;gt;&lt;div&gt;Staff ID&lt;/div&gt;" style="whiteSpace=wrap;html=1;" parent="1" vertex="1">
          <mxGeometry x="760" y="600" width="120" height="60" as="geometry" />
        </mxCell>
        <mxCell id="fWtlNmu1bt0CNakBBD50-16" value="" style="endArrow=classic;html=1;rounded=0;exitX=0;exitY=0.5;exitDx=0;exitDy=0;entryX=1;entryY=0.5;entryDx=0;entryDy=0;" edge="1" parent="1" target="00JM_ZhNrvVwOaPGAAfQ-19">
          <mxGeometry width="50" height="50" relative="1" as="geometry">
            <mxPoint x="850" y="519.6" as="sourcePoint" />
            <mxPoint x="680" y="519.6" as="targetPoint" />
            <Array as="points">
              <mxPoint x="740" y="520" />
            </Array>
          </mxGeometry>
        </mxCell>
        <mxCell id="fWtlNmu1bt0CNakBBD50-17" value="1" style="edgeLabel;html=1;align=center;verticalAlign=middle;resizable=0;points=[];" vertex="1" connectable="0" parent="fWtlNmu1bt0CNakBBD50-16">
          <mxGeometry x="0.5986" relative="1" as="geometry">
            <mxPoint x="2" y="-10" as="offset" />
          </mxGeometry>
        </mxCell>
        <mxCell id="fWtlNmu1bt0CNakBBD50-18" value="" style="endArrow=classic;html=1;rounded=0;exitX=0;exitY=0.5;exitDx=0;exitDy=0;entryX=1;entryY=0.5;entryDx=0;entryDy=0;" edge="1" parent="1" target="00JM_ZhNrvVwOaPGAAfQ-22">
          <mxGeometry width="50" height="50" relative="1" as="geometry">
            <mxPoint x="850" y="519.6" as="sourcePoint" />
            <mxPoint x="680" y="750" as="targetPoint" />
            <Array as="points">
              <mxPoint x="740" y="520" />
              <mxPoint x="740" y="600" />
            </Array>
          </mxGeometry>
        </mxCell>
        <mxCell id="fWtlNmu1bt0CNakBBD50-19" value="1" style="edgeLabel;html=1;align=center;verticalAlign=middle;resizable=0;points=[];" vertex="1" connectable="0" parent="fWtlNmu1bt0CNakBBD50-18">
          <mxGeometry x="0.5986" relative="1" as="geometry">
            <mxPoint x="-20" y="-10" as="offset" />
          </mxGeometry>
        </mxCell>
        <mxCell id="fWtlNmu1bt0CNakBBD50-20" value="" style="endArrow=classic;html=1;rounded=0;exitX=0.5;exitY=1;exitDx=0;exitDy=0;entryX=1;entryY=0.5;entryDx=0;entryDy=0;" edge="1" parent="1" source="00JM_ZhNrvVwOaPGAAfQ-28" target="00JM_ZhNrvVwOaPGAAfQ-43">
          <mxGeometry width="50" height="50" relative="1" as="geometry">
            <mxPoint x="770" y="740" as="sourcePoint" />
            <mxPoint x="820" y="690" as="targetPoint" />
            <Array as="points">
              <mxPoint x="910" y="630" />
            </Array>
          </mxGeometry>
        </mxCell>
        <mxCell id="fWtlNmu1bt0CNakBBD50-23" value="1" style="edgeLabel;html=1;align=center;verticalAlign=middle;resizable=0;points=[];" vertex="1" connectable="0" parent="fWtlNmu1bt0CNakBBD50-20">
          <mxGeometry x="0.6506" y="1" relative="1" as="geometry">
            <mxPoint y="14" as="offset" />
          </mxGeometry>
        </mxCell>
        <mxCell id="fWtlNmu1bt0CNakBBD50-24" value="" style="endArrow=classic;html=1;rounded=0;exitX=0.5;exitY=1;exitDx=0;exitDy=0;entryX=1.016;entryY=0.572;entryDx=0;entryDy=0;entryPerimeter=0;" edge="1" parent="1" target="Xy9ZclyO9K5CkUSjJzX3-1">
          <mxGeometry width="50" height="50" relative="1" as="geometry">
            <mxPoint x="910" y="550" as="sourcePoint" />
            <mxPoint x="880" y="630" as="targetPoint" />
            <Array as="points">
              <mxPoint x="910" y="724" />
            </Array>
          </mxGeometry>
        </mxCell>
        <mxCell id="fWtlNmu1bt0CNakBBD50-25" value="1" style="edgeLabel;html=1;align=center;verticalAlign=middle;resizable=0;points=[];" vertex="1" connectable="0" parent="fWtlNmu1bt0CNakBBD50-24">
          <mxGeometry x="0.6506" y="1" relative="1" as="geometry">
            <mxPoint x="-11" y="-7" as="offset" />
          </mxGeometry>
        </mxCell>
        <mxCell id="fWtlNmu1bt0CNakBBD50-26" value="" style="endArrow=classic;html=1;rounded=0;exitX=0.5;exitY=1;exitDx=0;exitDy=0;entryX=1;entryY=0.5;entryDx=0;entryDy=0;" edge="1" parent="1" target="00JM_ZhNrvVwOaPGAAfQ-56">
          <mxGeometry width="50" height="50" relative="1" as="geometry">
            <mxPoint x="910" y="550" as="sourcePoint" />
            <mxPoint x="880" y="630" as="targetPoint" />
            <Array as="points">
              <mxPoint x="910" y="810" />
            </Array>
          </mxGeometry>
        </mxCell>
        <mxCell id="fWtlNmu1bt0CNakBBD50-27" value="1" style="edgeLabel;html=1;align=center;verticalAlign=middle;resizable=0;points=[];" vertex="1" connectable="0" parent="fWtlNmu1bt0CNakBBD50-26">
          <mxGeometry x="0.6506" y="1" relative="1" as="geometry">
            <mxPoint x="-21" y="1" as="offset" />
          </mxGeometry>
        </mxCell>
        <mxCell id="fWtlNmu1bt0CNakBBD50-34" value="1" style="endArrow=classic;html=1;rounded=0;exitX=0.176;exitY=0.999;exitDx=0;exitDy=0;entryX=1;entryY=0.5;entryDx=0;entryDy=0;exitPerimeter=0;" edge="1" parent="1" source="wt-aQSrJydBZdkq5_UEP-2" target="00JM_ZhNrvVwOaPGAAfQ-3">
          <mxGeometry x="0.8462" y="20" width="50" height="50" relative="1" as="geometry">
            <mxPoint x="-80" y="300" as="sourcePoint" />
            <mxPoint x="-30" y="250" as="targetPoint" />
            <Array as="points">
              <mxPoint x="-30" y="360" />
            </Array>
            <mxPoint as="offset" />
          </mxGeometry>
        </mxCell>
        <mxCell id="fWtlNmu1bt0CNakBBD50-35" value="" style="endArrow=classic;html=1;rounded=0;exitX=0;exitY=0.5;exitDx=0;exitDy=0;entryX=1;entryY=0.5;entryDx=0;entryDy=0;" edge="1" parent="1" source="wt-aQSrJydBZdkq5_UEP-2" target="eLeBJTTPtMBUgs7N4k0F-3">
          <mxGeometry width="50" height="50" relative="1" as="geometry">
            <mxPoint x="-160" y="300" as="sourcePoint" />
            <mxPoint x="-110" y="250" as="targetPoint" />
          </mxGeometry>
        </mxCell>
        <mxCell id="fWtlNmu1bt0CNakBBD50-36" value="1" style="edgeLabel;html=1;align=center;verticalAlign=middle;resizable=0;points=[];" vertex="1" connectable="0" parent="fWtlNmu1bt0CNakBBD50-35">
          <mxGeometry x="0.8232" y="-3" relative="1" as="geometry">
            <mxPoint x="-4" y="-7" as="offset" />
          </mxGeometry>
        </mxCell>
        <mxCell id="fWtlNmu1bt0CNakBBD50-37" value="" style="endArrow=classic;html=1;rounded=0;exitX=0;exitY=0.5;exitDx=0;exitDy=0;entryX=1;entryY=0.5;entryDx=0;entryDy=0;" edge="1" parent="1" target="eLeBJTTPtMBUgs7N4k0F-5">
          <mxGeometry width="50" height="50" relative="1" as="geometry">
            <mxPoint x="-50" y="219.64" as="sourcePoint" />
            <mxPoint x="-210" y="219.64" as="targetPoint" />
            <Array as="points">
              <mxPoint x="-190" y="220" />
              <mxPoint x="-190" y="290" />
            </Array>
          </mxGeometry>
        </mxCell>
        <mxCell id="fWtlNmu1bt0CNakBBD50-38" value="1" style="edgeLabel;html=1;align=center;verticalAlign=middle;resizable=0;points=[];" vertex="1" connectable="0" parent="fWtlNmu1bt0CNakBBD50-37">
          <mxGeometry x="0.8232" y="-3" relative="1" as="geometry">
            <mxPoint x="-7" y="-10" as="offset" />
          </mxGeometry>
        </mxCell>
        <mxCell id="fWtlNmu1bt0CNakBBD50-39" value="" style="endArrow=classic;html=1;rounded=0;exitX=0;exitY=0.5;exitDx=0;exitDy=0;entryX=1;entryY=0.5;entryDx=0;entryDy=0;" edge="1" parent="1" target="eLeBJTTPtMBUgs7N4k0F-4">
          <mxGeometry width="50" height="50" relative="1" as="geometry">
            <mxPoint x="-50" y="220" as="sourcePoint" />
            <mxPoint x="-210" y="290.36" as="targetPoint" />
            <Array as="points">
              <mxPoint x="-190" y="220.36" />
              <mxPoint x="-190" y="360" />
            </Array>
          </mxGeometry>
        </mxCell>
        <mxCell id="fWtlNmu1bt0CNakBBD50-40" value="1" style="edgeLabel;html=1;align=center;verticalAlign=middle;resizable=0;points=[];" vertex="1" connectable="0" parent="fWtlNmu1bt0CNakBBD50-39">
          <mxGeometry x="0.8232" y="-3" relative="1" as="geometry">
            <mxPoint x="-10" y="-7" as="offset" />
          </mxGeometry>
        </mxCell>
        <mxCell id="fWtlNmu1bt0CNakBBD50-41" value="&lt;b&gt;EstimatedDuration&lt;/b&gt;&lt;div&gt;Ã© derivada da soma de&lt;b&gt; AnaesthesiaTime&lt;/b&gt;,&lt;b&gt; SurgeryTime &lt;/b&gt;e&lt;b&gt; CleaningTime&lt;/b&gt;&lt;/div&gt;" style="rounded=1;whiteSpace=wrap;html=1;" vertex="1" parent="1">
          <mxGeometry x="-510" y="440" width="180" height="70" as="geometry" />
        </mxCell>
        <mxCell id="fWtlNmu1bt0CNakBBD50-42" value="" style="endArrow=none;dashed=1;html=1;dashPattern=1 3;strokeWidth=2;rounded=0;exitX=0.5;exitY=0;exitDx=0;exitDy=0;entryX=0;entryY=0.5;entryDx=0;entryDy=0;" edge="1" parent="1" source="fWtlNmu1bt0CNakBBD50-41" target="eLeBJTTPtMBUgs7N4k0F-4">
          <mxGeometry width="50" height="50" relative="1" as="geometry">
            <mxPoint x="-300" y="400" as="sourcePoint" />
            <mxPoint x="-250" y="350" as="targetPoint" />
            <Array as="points">
              <mxPoint x="-420" y="360" />
            </Array>
          </mxGeometry>
        </mxCell>
        <mxCell id="fWtlNmu1bt0CNakBBD50-43" value="" style="endArrow=none;dashed=1;html=1;dashPattern=1 3;strokeWidth=2;rounded=0;exitX=0.5;exitY=0;exitDx=0;exitDy=0;entryX=0;entryY=0.5;entryDx=0;entryDy=0;" edge="1" parent="1" target="eLeBJTTPtMBUgs7N4k0F-5">
          <mxGeometry width="50" height="50" relative="1" as="geometry">
            <mxPoint x="-420" y="440" as="sourcePoint" />
            <mxPoint x="-310" y="360" as="targetPoint" />
            <Array as="points">
              <mxPoint x="-420" y="290" />
            </Array>
          </mxGeometry>
        </mxCell>
        <mxCell id="fWtlNmu1bt0CNakBBD50-44" value="" style="endArrow=none;dashed=1;html=1;dashPattern=1 3;strokeWidth=2;rounded=0;exitX=0.5;exitY=0;exitDx=0;exitDy=0;entryX=0;entryY=0.5;entryDx=0;entryDy=0;" edge="1" parent="1" target="eLeBJTTPtMBUgs7N4k0F-3">
          <mxGeometry width="50" height="50" relative="1" as="geometry">
            <mxPoint x="-420" y="440" as="sourcePoint" />
            <mxPoint x="-310" y="360" as="targetPoint" />
            <Array as="points">
              <mxPoint x="-420" y="220" />
            </Array>
          </mxGeometry>
        </mxCell>
        <mxCell id="fWtlNmu1bt0CNakBBD50-45" value="" style="endArrow=none;dashed=1;html=1;dashPattern=1 3;strokeWidth=2;rounded=0;exitX=0.75;exitY=0;exitDx=0;exitDy=0;entryX=0.5;entryY=1;entryDx=0;entryDy=0;" edge="1" parent="1" source="fWtlNmu1bt0CNakBBD50-41" target="00JM_ZhNrvVwOaPGAAfQ-3">
          <mxGeometry width="50" height="50" relative="1" as="geometry">
            <mxPoint x="-270" y="440" as="sourcePoint" />
            <mxPoint x="-220" y="390" as="targetPoint" />
            <Array as="points">
              <mxPoint x="-375" y="430" />
              <mxPoint x="-110" y="430" />
            </Array>
          </mxGeometry>
        </mxCell>
        <mxCell id="fWtlNmu1bt0CNakBBD50-47" value="" style="endArrow=classic;html=1;rounded=0;exitX=1;exitY=0.5;exitDx=0;exitDy=0;entryX=0;entryY=0.5;entryDx=0;entryDy=0;" edge="1" parent="1" target="00JM_ZhNrvVwOaPGAAfQ-34">
          <mxGeometry width="50" height="50" relative="1" as="geometry">
            <mxPoint x="390" y="520" as="sourcePoint" />
            <mxPoint x="570" y="670" as="targetPoint" />
            <Array as="points">
              <mxPoint x="510" y="520" />
              <mxPoint x="510" y="740" />
            </Array>
          </mxGeometry>
        </mxCell>
        <mxCell id="fWtlNmu1bt0CNakBBD50-48" value="1" style="edgeLabel;html=1;align=center;verticalAlign=middle;resizable=0;points=[];" vertex="1" connectable="0" parent="fWtlNmu1bt0CNakBBD50-47">
          <mxGeometry x="0.8326" y="2" relative="1" as="geometry">
            <mxPoint x="23" y="-8" as="offset" />
          </mxGeometry>
        </mxCell>
        <mxCell id="fWtlNmu1bt0CNakBBD50-49" value="" style="endArrow=classic;html=1;rounded=0;exitX=1;exitY=0.5;exitDx=0;exitDy=0;entryX=0;entryY=0.5;entryDx=0;entryDy=0;" edge="1" parent="1" target="00JM_ZhNrvVwOaPGAAfQ-35">
          <mxGeometry width="50" height="50" relative="1" as="geometry">
            <mxPoint x="390" y="520" as="sourcePoint" />
            <mxPoint x="570" y="670" as="targetPoint" />
            <Array as="points">
              <mxPoint x="510" y="520" />
              <mxPoint x="510" y="810" />
            </Array>
          </mxGeometry>
        </mxCell>
        <mxCell id="fWtlNmu1bt0CNakBBD50-50" value="1" style="edgeLabel;html=1;align=center;verticalAlign=middle;resizable=0;points=[];" vertex="1" connectable="0" parent="fWtlNmu1bt0CNakBBD50-49">
          <mxGeometry x="0.8326" y="2" relative="1" as="geometry">
            <mxPoint x="29" y="-8" as="offset" />
          </mxGeometry>
        </mxCell>
        <mxCell id="fWtlNmu1bt0CNakBBD50-51" value="" style="endArrow=classic;html=1;rounded=0;exitX=0;exitY=0.5;exitDx=0;exitDy=0;entryX=1;entryY=0.5;entryDx=0;entryDy=0;" edge="1" parent="1" target="00JM_ZhNrvVwOaPGAAfQ-34">
          <mxGeometry width="50" height="50" relative="1" as="geometry">
            <mxPoint x="850" y="520" as="sourcePoint" />
            <mxPoint x="680" y="670" as="targetPoint" />
            <Array as="points">
              <mxPoint x="740" y="520" />
              <mxPoint x="740" y="740" />
            </Array>
          </mxGeometry>
        </mxCell>
        <mxCell id="fWtlNmu1bt0CNakBBD50-52" value="1" style="edgeLabel;html=1;align=center;verticalAlign=middle;resizable=0;points=[];" vertex="1" connectable="0" parent="fWtlNmu1bt0CNakBBD50-51">
          <mxGeometry x="0.5986" relative="1" as="geometry">
            <mxPoint x="-20" y="8" as="offset" />
          </mxGeometry>
        </mxCell>
        <mxCell id="fWtlNmu1bt0CNakBBD50-53" value="" style="endArrow=classic;html=1;rounded=0;exitX=0;exitY=0.5;exitDx=0;exitDy=0;entryX=1;entryY=0.5;entryDx=0;entryDy=0;" edge="1" parent="1" target="00JM_ZhNrvVwOaPGAAfQ-35">
          <mxGeometry width="50" height="50" relative="1" as="geometry">
            <mxPoint x="850" y="520" as="sourcePoint" />
            <mxPoint x="680" y="670" as="targetPoint" />
            <Array as="points">
              <mxPoint x="740" y="520" />
              <mxPoint x="740" y="810" />
            </Array>
          </mxGeometry>
        </mxCell>
        <mxCell id="fWtlNmu1bt0CNakBBD50-54" value="1" style="edgeLabel;html=1;align=center;verticalAlign=middle;resizable=0;points=[];" vertex="1" connectable="0" parent="fWtlNmu1bt0CNakBBD50-53">
          <mxGeometry x="0.5986" relative="1" as="geometry">
            <mxPoint x="-20" y="22" as="offset" />
          </mxGeometry>
        </mxCell>
        <mxCell id="fWtlNmu1bt0CNakBBD50-55" value="&lt;b&gt;FirstName &lt;/b&gt;e &lt;b&gt;LastName&lt;/b&gt;&amp;nbsp;sÃ£o derivados de &lt;b&gt;FullName&lt;/b&gt;" style="rounded=1;whiteSpace=wrap;html=1;" vertex="1" parent="1">
          <mxGeometry x="535" y="905" width="180" height="70" as="geometry" />
        </mxCell>
        <mxCell id="fWtlNmu1bt0CNakBBD50-56" value="" style="endArrow=none;dashed=1;html=1;dashPattern=1 3;strokeWidth=2;rounded=0;exitX=0.5;exitY=0;exitDx=0;exitDy=0;entryX=0;entryY=0.75;entryDx=0;entryDy=0;" edge="1" parent="1" source="fWtlNmu1bt0CNakBBD50-55" target="00JM_ZhNrvVwOaPGAAfQ-31">
          <mxGeometry width="50" height="50" relative="1" as="geometry">
            <mxPoint x="620" y="905" as="sourcePoint" />
            <mxPoint x="670" y="855" as="targetPoint" />
            <Array as="points">
              <mxPoint x="625" y="880" />
              <mxPoint x="540" y="880" />
              <mxPoint x="540" y="685" />
            </Array>
          </mxGeometry>
        </mxCell>
        <mxCell id="fWtlNmu1bt0CNakBBD50-57" value="" style="endArrow=none;dashed=1;html=1;dashPattern=1 3;strokeWidth=2;rounded=0;exitX=0.5;exitY=0;exitDx=0;exitDy=0;entryX=1;entryY=0.75;entryDx=0;entryDy=0;" edge="1" parent="1" target="00JM_ZhNrvVwOaPGAAfQ-34">
          <mxGeometry width="50" height="50" relative="1" as="geometry">
            <mxPoint x="625" y="905" as="sourcePoint" />
            <mxPoint x="570" y="685" as="targetPoint" />
            <Array as="points">
              <mxPoint x="625" y="880" />
              <mxPoint x="710" y="880" />
              <mxPoint x="710" y="755" />
            </Array>
          </mxGeometry>
        </mxCell>
        <mxCell id="fWtlNmu1bt0CNakBBD50-58" value="" style="endArrow=none;dashed=1;html=1;dashPattern=1 3;strokeWidth=2;rounded=0;exitX=0.5;exitY=0;exitDx=0;exitDy=0;entryX=1;entryY=0.75;entryDx=0;entryDy=0;" edge="1" parent="1" source="fWtlNmu1bt0CNakBBD50-55" target="00JM_ZhNrvVwOaPGAAfQ-35">
          <mxGeometry width="50" height="50" relative="1" as="geometry">
            <mxPoint x="615" y="905" as="sourcePoint" />
            <mxPoint x="670" y="755" as="targetPoint" />
            <Array as="points">
              <mxPoint x="625" y="880" />
              <mxPoint x="710" y="880" />
              <mxPoint x="710" y="825" />
            </Array>
          </mxGeometry>
        </mxCell>
      </root>
    </mxGraphModel>
  </diagram>
</mxfile>
